#!OML:ASF E:/inclinewalkrobotboard/Project1/Captureday1/Session1/subject1.ASF
:FULLY-SPECIFIED
:DEGREES
151
root 0 0 0 -4.316747110957695 -16.85525405364454 3.4696015242179787
lowerback 6.828470135416703 1.2726793094854396 -0.467314210309254
upperback 2.8123184731638102 1.656400730638183 -1.3210342376520534
thorax -0.823484159872311 0.7986314445049165 -1.2418708262692564
lowerneck -3.5351505533582097 3.0309447178120545 -3.726763028670499
upperneck 16.150276560739986 4.087387781797689 0.09266761404136936
head 5.442892365373394 1.8692579949277666 0.9834942452623503
rclavicle -5.453280055118304E-15 1.626927097293741E-15
rhumerus 42.92193545112306 -28.657339370929225 -43.50203946589933
rradius 51.1871315970191
rwrist 21.215317924167827
rhand -31.525059859167904 3.218849253839569
rfingers 7.1250200000000135
rthumb -4.74209010533237 -26.865328786901586
lclavicle -6.711054815822704E-17 5.71924147307919E-17
lhumerus 25.297403756609146 -6.339770588611811 55.06571499245698
lradius 90.74478142754245
lwrist 35.124409754826885
lhand -29.502300349579517 35.81665453225807
lfingers 7.134571707575635
lthumb -2.8374191436889404 54.33896621440217
rfemur -18.18176235553754 10.904419600043395 13.95644487522468
rtibia 38.89606589033341
rfoot -15.429651879057495 -13.204164942011765
rtoes -5.721305548404626
lfemur -17.734265164741647 -4.997131671582821 -11.066914761917367
ltibia 36.99557899743384
lfoot -6.942572786141451 5.299186433592663
ltoes -4.834590007353779
152
root 0 0 0 -4.283011741097916 -17.144097906777603 3.5950169496948323
lowerback 6.969760519469878 1.2607405694414333 -0.5195636399473527
upperback 2.898450766405226 1.629423064221248 -1.3254133513866564
thorax -0.810100321073761 0.7851336693841018 -1.2166536617590507
lowerneck -3.3495699346250505 3.034529608230787 -3.7643622237222867
upperneck 16.06166043590713 4.088078040940399 0.1636639153952908
head 5.384184311303458 1.8647639991969518 1.018178353841921
rclavicle -5.452226730341495E-15 1.597580488597566E-15
rhumerus 42.61089789596386 -28.803721909984315 -43.53303546890885
rradius 50.172865594700944
rwrist 21.852474012555064
rhand -31.122875586246717 3.6269560487913184
rfingers 7.125020000000015
rthumb -4.3511129917971925 -26.462210070239504
lclavicle -1.0795703600196934E-16 5.684207760562682E-17
lhumerus 25.52146817026608 -7.855171015222869 55.599777301070404
lradius 93.42165130001177
lwrist 36.88673694073477
lhand -29.613359632697673 36.407178438139184
lfingers 7.135624682138489
lthumb -2.931598374487704 54.2135418180516
rfemur -20.669482996062573 9.916267564089878 12.973892896833462
rtibia 41.49891457222046
rfoot -14.042482431419426 -13.069109750055842
rtoes -5.554579648907698
lfemur -17.612096199056214 -5.031427900753605 -11.093566643919115
ltibia 36.86722641781139
lfoot -7.005916409822068 5.340050296978976
ltoes -4.839362937758277
153
root 0 0 0 -4.232573628438745 -17.447945988214435 3.7563577190476893
lowerback 7.154910736578968 1.2440416245237431 -0.6049443457220816
upperback 3.0173241886792264 1.591157310701021 -1.33445638289172
thorax -0.7861515477568213 0.7660066901942464 -1.1774996626860905
lowerneck -3.078922856431518 3.025097194295958 -3.829094688983101
upperneck 15.983966332731528 4.0663635461443 0.28303057882465854
head 5.3166130688972775 1.8480975466853065 1.073535665127849
rclavicle -5.449975336221724E-15 1.5675228234561242E-15
rhumerus 42.19452050347987 -28.90475404033818 -43.61553559367849
rradius 49.0716985057123
rwrist 22.53783884391851
rhand -30.669676039750634 4.071393544433033
rfingers 7.125020000000017
rthumb -3.911190954791877 -26.021656024854096
lclavicle -1.3740482705662994E-16 4.544885799225417E-17
lhumerus 25.70829054119854 -9.679040766222503 56.28138185544964
lradius 96.54423886211822
lwrist 38.922748080241746
lhand -29.71603244874472 37.09238657169364
lfingers 7.136826848401792
lthumb -3.0157682405005968 54.06925620266192
rfemur -24.271787015368325 8.498279533929077 11.547595061644271
rtibia 45.272948321672345
rfoot -11.992584443992316 -12.83168953021726
rtoes -5.3087501770630245
lfemur -17.322793113507828 -5.099396984185325 -11.160744794958017
ltibia 36.54821635045319
lfoot -7.154352762069764 5.481321157886577
ltoes -4.789965178040263
154
root 0 0 0 -4.163563807793465 -17.795917489337253 3.9677058117726096
lowerback 7.4012483599187835 1.2202009934020261 -0.734907734898176
upperback 3.180640773397622 1.5367432181922003 -1.3490330853613166
thorax -0.7486658799786592 0.7387790993728429 -1.1187315313250816
lowerneck -2.694317254321294 2.9958755334918883 -3.9318134596920626
upperneck 15.912340526605902 4.011419695153357 0.4719428139964217
head 5.234568319469387 1.8135320360782843 1.1581500767981163
rclavicle -5.448041155615327E-15 1.5355343724942136E-15
rhumerus 41.67979525545374 -28.970547243975926 -43.74254464410403
rradius 47.872751664130256
rwrist 23.279656941049673
rhand -30.16308545332687 4.556989767737373
rfingers 7.12502000000002
rthumb -3.419988704069638 -25.538804410098177
lclavicle -1.7815662690133418E-16 3.1102933284812093E-17
lhumerus 25.859768772497947 -11.8444738779434 57.124142616102276
lradius 100.16699077524234
lwrist 41.26540370647637
lhand -29.80894648742955 37.884168011662524
lfingers 7.138249704506709
lthumb -3.088056656252352 53.905072426940066
rfemur -29.088948222627526 6.618069409635222 9.638698985768272
rtibia 50.362173423996154
rfoot -9.20429280781984 -12.424374069327532
rtoes -4.985041523801405
lfemur -16.887329361414174 -5.1934125221040315 -11.264891505851887
ltibia 36.067768067453564
lfoot -7.382402726946303 5.710423690429649
ltoes -4.6961221501637365
155
root 0 0 0 -4.049440985069989 -18.40850355851541 4.315711924462572
lowerback 7.845653276620958 1.1775999634406644 -0.9819287478121669
upperback 3.473686226261846 1.4386438570276279 -1.3772300667602408
thorax -0.6826130236656074 0.6894488433115364 -1.007522192655301
lowerneck -1.9974274891430115 2.8994102602168224 -4.146983397871918
upperneck 15.76032607845029 3.849541369565084 0.8764752694018387
head 5.083923911403394 1.7217161155393388 1.3318509033067414
rclavicle -5.414996858960242E-15 1.4772212757724567E-15
rhumerus 40.61507722319756 -28.85746544618406 -44.1041874156852
rradius 45.93982195624299
rwrist 24.433894264052125
rhand -29.287460585070107 5.329042432941149
rfingers 7.125020000000022
rthumb -2.5723743893565922 -24.76602551458597
lclavicle -2.3084409777171295E-16 6.910065096487191E-19
lhumerus 25.87290961295263 -15.69399949207484 58.743754854954894
lradius 106.28376133150704
lwrist 45.15071171497745
lhand -29.868141106215496 39.21100035739834
lfingers 7.140667136880066
lthumb -3.115666257558024 53.62775777025222
rfemur -34.95093305647033 4.457985532706557 7.253435247943474
rtibia 56.52196924832796
rfoot -5.91683057390559 -11.773157498087429
rtoes -4.7609197906428875
lfemur -16.06863213130671 -5.39885383692771 -11.45300864370404
ltibia 35.107240905029755
lfoot -7.763184639828299 6.147727534041918
ltoes -4.4783151914450485
156
root 0 0 0 -3.9944595415466746 -18.81864845644965 4.4857142707402975
lowerback 8.107401041838953 1.1587864708989533 -1.1247760298026113
upperback 3.642391514808434 1.3893984454929753 -1.3974427436018722
thorax -0.6479345556415457 0.6644700651079907 -0.947716948203247
lowerneck -1.5943731044503253 2.8100343528329517 -4.29380799943371
upperneck 15.605627188601849 3.7089012691138286 1.162954984338696
head 4.980300853421388 1.6467044741983132 1.4497252725945073
rclavicle -5.334028283702233E-15 1.4194256722750765E-15
rhumerus 39.78406619926997 -28.55814836416783 -44.466205423422615
rradius 44.829158187533174
rwrist 25.052453669540874
rhand -28.724365529661313 5.754894555957497
rfingers 7.125020000000024
rthumb -2.0287292619662205 -24.336005559958316
lclavicle -2.371485465966586E-16 -2.8235425132823397E-17
lhumerus 25.73645412449007 -18.6089228690399 60.04126520728842
lradius 110.74102433534298
lwrist 47.930211132969085
lhand -29.850027321162678 40.170085136742
lfingers 7.142493053847175
lthumb -3.0761183013917393 53.42571129147685
rfemur -36.397388393819796 4.111538855013364 6.565881578680704
rtibia 57.84141107272656
rfoot -5.414110525900953 -11.587506447625717
rtoes -5.006969174751127
lfemur -15.298556315688037 -5.672244755847232 -11.591050454106817
ltibia 34.019788969209706
lfoot -8.058070258142784 6.6259318637334115
ltoes -4.208456770025618
